<?xml version="1.0" encoding="UTF-8"?>
<svg viewBox="0 0 536.18176 718.21582" xmlns="http://www.w3.org/2000/svg" xmlns:xlink="http://www.w3.org/1999/xlink">
 <defs>
  <linearGradient id="b">
   <stop stop-color="#eee" offset="0"/>
   <stop stop-color="#eee" stop-opacity="0" offset="1"/>
  </linearGradient>
  <linearGradient id="d">
   <stop stop-color="#cccccf" offset="0"/>
   <stop stop-color="#fff" stop-opacity="0" offset="1"/>
  </linearGradient>
  <linearGradient id="e">
   <stop stop-color="#cccccf" offset="0"/>
   <stop stop-color="#eee" stop-opacity="0" offset="1"/>
  </linearGradient>
  <linearGradient id="c">
   <stop stop-color="#ff0" offset="0"/>
   <stop stop-color="#fdca01" offset="1"/>
  </linearGradient>
  <linearGradient id="a">
   <stop stop-color="#fff" offset="0"/>
   <stop stop-color="#fff" stop-opacity="0" offset="1"/>
  </linearGradient>
  <linearGradient id="aa" x1="351.22" x2="406.14" gradientUnits="userSpaceOnUse">
   <stop stop-color="#fb8a00" offset="0"/>
   <stop stop-color="#fdca01" offset="1"/>
  </linearGradient>
  <linearGradient id="v" x1="355.29" x2="362.73" y1="536.73" y2="574.43" gradientUnits="userSpaceOnUse">
   <stop stop-color="#ededed" offset="0"/>
   <stop stop-color="#cccccf" offset="1"/>
  </linearGradient>
  <linearGradient id="z" x1="346.65" x2="402.41" gradientUnits="userSpaceOnUse" xlink:href="#c"/>
  <linearGradient id="y" x2="0" y1="593.79" y2="607.72" gradientUnits="userSpaceOnUse" xlink:href="#e"/>
  <linearGradient id="x" x1="335.88" x2="352.8" gradientUnits="userSpaceOnUse" xlink:href="#d"/>
  <linearGradient id="w" x1="360.37" x2="374.77" gradientUnits="userSpaceOnUse" xlink:href="#d"/>
  <linearGradient id="u" x2="0" y1="568.25" y2="585.65" gradientUnits="userSpaceOnUse" xlink:href="#e"/>
  <linearGradient id="t" x1="295.22" x2="320.18" gradientUnits="userSpaceOnUse" xlink:href="#a"/>
  <linearGradient id="s" x1="342.84" x2="349.22" gradientUnits="userSpaceOnUse" xlink:href="#a"/>
  <linearGradient id="r" x1="344.64" x2="350.09" y1="496.16" y2="496.58" gradientUnits="userSpaceOnUse" xlink:href="#a"/>
  <linearGradient id="q" x1="363.93" x2="369.08" gradientUnits="userSpaceOnUse" xlink:href="#a"/>
  <linearGradient id="p" x1="344.63" x2="350.09" gradientTransform="matrix(.80197 .10164 -.10164 .80197 139.61 61.126)" gradientUnits="userSpaceOnUse" xlink:href="#a"/>
  <linearGradient id="o" x1="359" x2="357.72" y1="473.02" y2="488.33" gradientTransform="matrix(1.1132 -.1091 .09869 1.2306 -93.649 -72.657)" gradientUnits="userSpaceOnUse" xlink:href="#a"/>
  <linearGradient id="n" x1="383.75" x2="405.97" gradientUnits="userSpaceOnUse" xlink:href="#d"/>
  <linearGradient id="m" x1="329.29" x2="329.11" y1="581.19" y2="610.02" gradientUnits="userSpaceOnUse" xlink:href="#b"/>
  <linearGradient id="l" x1="376.8" x2="371.94" y1="583.46" y2="601.78" gradientUnits="userSpaceOnUse" xlink:href="#b"/>
  <linearGradient id="k" x1="352.29" x2="369.34" gradientUnits="userSpaceOnUse" xlink:href="#b"/>
  <linearGradient id="j" x1="348.76" x2="363.15" gradientUnits="userSpaceOnUse" xlink:href="#b"/>
  <radialGradient id="i" cx="348.34" cy="593.73" r="37.062" gradientTransform="matrix(2.4007 -1.3995e-6 4.6385e-7 .78465 -487.93 114.17)" gradientUnits="userSpaceOnUse" xlink:href="#a"/>
  <radialGradient id="h" cx="359.33" cy="514.22" r="13.019" gradientTransform="matrix(1 0 0 .7462 0 130.51)" gradientUnits="userSpaceOnUse" xlink:href="#c"/>
  <radialGradient id="g" cx="369.22" cy="584.32" r="19.278" gradientTransform="matrix(1 0 0 .61658 4.663 224.65)" gradientUnits="userSpaceOnUse" xlink:href="#c"/>
  <radialGradient id="f" cx="325.54" cy="586.02" r="19.278" gradientTransform="matrix(-1.6118 -.03716 .01421 -.61641 848.05 958.31)" gradientUnits="userSpaceOnUse" xlink:href="#c"/>
 </defs>
 <g transform="translate(-90.394 -130.57)">
  <path d="m350.38 198.59s-4.0132-46.469 16.264-61.677c0 0-7.9208 25.664-4.0132 51.116 0 0 2.0066-37.598 24.819-56.185 0 0-11.089 32-11.3 51.961 0 0-1.0561-24.819 25.136-40.027 0 0-12.145 12.568-10.456 35.802l-1.1616 27.036-20.489-9.0825-18.799 1.0561h-1e-4z" fill="url(#aa)"/>
  <path d="m346.65 199.43s0.42251-48.581 20.7-63.789c0 0-16.053 29.571-8.4489 53.228 0 0 6.7591-39.71 29.571-58.297 0 0-20.277 35.063-16.053 54.073 0 0 3.802-26.614 29.994-41.822 0 0-18.588 14.786-16.898 38.02l3.8021 25.347-23.868-7.8152-18.799 1.0561h-1e-4z" fill="url(#z)"/>
  <g transform="matrix(4.7314 0 0 4.7314 -1297.1 -2004.6)">
   <path transform="matrix(.89362 0 0 1.0897 28.647 -59.182)" d="m420.36 593.79c0 7.6925-26.303 13.929-58.75 13.929s-58.75-6.236-58.75-13.929 26.303-13.929 58.75-13.929 58.75 6.236 58.75 13.929z" fill="url(#y)" opacity=".69547"/>
   <path d="m351.51 464.36s21.921 0.56644 30.001 16.881c0 0 3.4679 10.807 0.75059 18.578 0 0-3.3071 11.229 4.9792 21.788 0 0 6.5075 10.717 11.756 13.3s7.1761 8.1481 7.1761 8.1481 2.9904 7.4436-7.2342 3.3304l-10.319-5.1804s1.9339 46.081-35.217 45.609c0 0-45.48 0.62568-43.378-42.407 0 0-10.749 6.1518-16.087 0.52982 0 0-3.051-2.0601 3.7644-6.0704 0 0 22.337-19.011 24.287-23.307s2.1339-14.352 1.1228-17.668-4.5427-28.998 28.4-33.532z" fill="#1a1a1a"/>
   <path d="m311.28 550.96c2.0294 34.966 41.96 34.42 41.96 34.42 20.988 0.25904 29.064-14.418 32.165-26.683-9.0306 12.187-21.198 19.652-34.584 19.652-16.023 0-30.3-10.702-39.541-27.389z" fill="url(#i)" opacity=".59671"/>
   <path transform="matrix(.99609 -.08831 .08831 .99609 -46.254 33.193)" d="m358.86 495.2c0 6.3809-5.3141 11.554-11.869 11.554s-11.869-5.1727-11.869-11.554 5.3141-11.554 11.869-11.554 11.869 5.1727 11.869 11.554z" fill="#eee"/>
   <path transform="matrix(.85206 -.08935 .09065 .86995 25.744 92.949)" d="m358.86 495.2c0 6.3809-5.3141 11.554-11.869 11.554s-11.869-5.1727-11.869-11.554 5.3141-11.554 11.869-11.554 11.869 5.1727 11.869 11.554z" fill="#eee"/>
   <path transform="matrix(1.0896 0 0 1.0984 -31.594 -49.633)" d="m352.8 496.9c0 4.2539-3.7877 7.7024-8.46 7.7024s-8.46-3.4485-8.46-7.7024 3.7877-7.7024 8.46-7.7024 8.46 3.4485 8.46 7.7024z" fill="url(#x)" opacity=".69547"/>
   <path transform="matrix(.99609 -.08831 .08831 .99609 -45.648 32.886)" d="m354.56 498.74c0 2.6849-2.1482 4.8614-4.7982 4.8614s-4.7982-2.1765-4.7982-4.8614 2.1482-4.8614 4.7982-4.8614 4.7982 2.1765 4.7982 4.8614z" fill="#333"/>
   <path d="m374.77 493.37c0 4.5329-3.2224 8.2075-7.1973 8.2075s-7.1973-3.6746-7.1973-8.2075 3.2224-8.2075 7.1973-8.2075 7.1973 3.6746 7.1973 8.2075z" fill="url(#w)" opacity=".69547"/>
   <path transform="matrix(.99609 -.08831 .08831 .99609 -45.648 32.886)" d="m374.64 498.17c0 2.3013-1.8938 4.1669-4.23 4.1669s-4.23-1.8656-4.23-4.1669 1.8938-4.1669 4.23-4.1669 4.23 1.8656 4.23 4.1669z" fill="#333"/>
   <path transform="matrix(1.3774 .31208 -.2479 1.0941 -8.645 -169.88)" d="m384.29 552.72c0 18.837-10.233 34.107-22.857 34.107s-22.857-15.27-22.857-34.107 10.234-34.107 22.857-34.107 22.857 15.27 22.857 34.107z" fill="url(#v)"/>
   <path d="m345.79 514.05s6.5921-12.596 23.486-5.0401c0 0 2.2606 1.2338 1.1732 3.1229s-4.989 11.468-4.989 11.468-1.335 4.152-6.9213 0.79286c-4.8888-2.9397-13.831-7.3789-12.749-10.343z" fill="#f0a513"/>
   <path d="m347.53 511.83s0.86518-2.7232 4.735-4.502c1.8821-0.86511 4.0629-1.9668 6.9304-2.1822s6.3407 0.29725 10.564 2.1861c0 0 2.8856 1.323 1.7982 3.2122s-4.989 11.467-4.989 11.467-0.0406 3.0018-6.5925 1.7101c-6.0698-1.1967-13.553-8.8943-12.446-11.892z" fill="url(#h)"/>
   <path d="m321.97 535.97c-0.50037 1.4774-0.92698 2.9989-1.2812 4.5625-4.6696 20.61 5.6435 40.498 23.031 44.438s35.268-9.5463 39.938-30.156c0.0657-0.29005 0.0964-0.58527 0.15625-0.875-7.1996 15.488-22.552 24.752-37.562 21.406-16.215-3.6145-26.381-20.668-24.281-39.375z" fill="url(#u)"/>
   <path d="m355.06 591.13c0.47783-5.8555 3.8091-11.411 8.749-14.591s11.376-3.9123 16.904-1.9231c5.727 2.0609 10.869 6.2891 10.914 12.861-4.6845 7.4017-14.137 9.6488-22.89 8.7427-4.8906-0.50623-11.967 0.2245-13.677-5.0895" fill="url(#g)"/>
   <path d="m348.48 590.46c-0.47783-5.8555-3.8091-11.411-8.749-14.591s-11.376-3.9123-16.904-1.9231c-5.727 2.0609-11.761 4.6819-11.985 12.861 2.5416 7.9374 15.165 8.9844 23.962 8.7427 5.4264-0.14909 11.074-0.31121 13.677-5.0895" fill="url(#f)"/>
   <path d="m295.54 542.9s23.571-17.857 24.643-21.071l-4.8214 10.179s-14.643 10.536-15.536 11.429-5.8929 3.75-4.2857-0.53572z" fill="url(#t)" opacity=".61317"/>
   <path d="m343.97 495.97c-0.68072 0.69717-1.125 1.6421-1.125 2.7188 0 2.1204 1.6657 3.8438 3.6875 3.8438 1.0799 0 2.0175-0.50116 2.6875-1.2812-0.17922 0.0245-0.37776 0.0312-0.5625 0.0312-2.5251 0-4.5508-2.3516-4.6875-5.3125z" fill="url(#s)" opacity=".69547"/>
   <path d="m348.39018,495.12904c-1.1173-.64033-2.53661-.47392-3.60939.53828-.0393.037-.0761.0734-.11345.11189 .73845.5784 1.31152,1.31154 1.73609,2.11825 1.15322-.49219 2.42917-.61225 3.60781-.31294-.0948-.54843-.28676-1.09105-.61329-1.54706-.27857-.38904-.63534-.69498-1.00777-.90842z" fill="url(#r)" opacity=".69547"/>
   <path d="m364.84 494.32c-0.55028 0.56358-0.90943 1.3274-0.90943 2.1978 0 1.7141 1.3466 3.1072 2.9809 3.1072 0.87299 0 1.6309-0.40513 2.1725-1.0357-0.14488 0.0198-0.30538 0.0252-0.45472 0.0252-2.0412 0-3.6788-1.901-3.7893-4.2945z" fill="url(#q)" opacity=".69547"/>
   <path d="m368.59465,493.63031c-.87662-.56148-2.0292-.48362-2.93566.29093l-.096.0858c.5732.49641 1.00672,1.11115 1.31741,1.77939 .9507-.35148 1.98569-.39763 2.92541-.10905-.0547-.44657-.1881-.89233-.43359-1.27351-.20944-.32521-.48531-.58642-.77752-.77358z" fill="url(#p)" opacity=".69547"/>
   <path d="m355.83 468.05c-1.2599-0.0167-2.5819 0.0284-3.9062 0.15816-10.595 1.0383-18.806 6.5711-18.344 12.336 0.12361 1.5414 0.88594 2.9348 2.0938 4.1436 4.3194-3.7414 10.808-5.556 18.625 4.3334 0.0525-6e-3 0.10385-0.0252 0.15625-0.0316 0.2348-0.66603 5.3126-14.611 15.969-7.5281 1.0937-1.4828 1.6608-3.0665 1.5312-4.6814-0.40453-5.0444-7.3055-8.6134-16.125-8.7301z" fill="url(#o)" opacity=".69547"/>
   <path d="m383.75 520.22s11.786 17.679 17.679 19.464c0 0 7.5 3.2143 3.2143 3.9286s-16.071-10.536-16.429-11.25-4.1072-11.607-4.4643-12.143z" fill="url(#n)" opacity=".61317"/>
   <path transform="matrix(1 0 0 1.1026 3.5714 -60.581)" d="m341.43 587.18c0 3.8463-5.5165 6.9643-12.321 6.9643s-12.321-3.118-12.321-6.9643 5.5165-6.9643 12.321-6.9643 12.321 3.118 12.321 6.9643z" fill="url(#m)" opacity=".61317"/>
   <path transform="matrix(.99166 -.14439 .16511 1.4237 -96.775 -196.38)" d="m385.71 587.72c0 3.1559-5.1168 5.7143-11.429 5.7143s-11.429-2.5584-11.429-5.7143 5.1168-5.7143 11.429-5.7143 11.429 2.5584 11.429 5.7143z" fill="url(#l)" opacity=".61317"/>
   <path d="m352.29 509.78s5.177-3.283 6.4397-3.0305 8.7126 1.6415 8.7126 1.6415l1.894 0.63134-4.7982 10.354-12.248-9.5964z" fill="url(#k)"/>
   <path d="m350.4 511.43 9.2176 8.5863 3.5355 1.2627-4.7982 0.37881-5.9346-4.0406-2.6516-3.6618-1.0102-1.5152 1.6415-1.0102z" fill="url(#j)"/>
  </g>
 </g>
</svg>
